<svg xmlns="http://www.w3.org/2000/svg" viewBox="0 0 92.69 94.05"><defs><style>.cls-1{fill:#00d477;}</style></defs><g id="Layer_2" data-name="Layer 2"><g id="Layer_1-2" data-name="Layer 1"><path d="M45.25,37.34H74.74V.73h16.5V77.81H74.74V51.5H45.25"/><path class="cls-1" d="M53.26,44.13C61.2,40.48,66.68,33.39,66.68,21.9S60.23,0,40.9,0H10.62V77.74H27.06V48.21h.11v-13h-.11V13.31h9.12C45,13.31,49.6,16.1,49.6,23.52c0,7.92-5.14,11.05-11.8,11.6V48.43L53,77.74H70.87Z"/><path d="M42.63,44.13c7.94-3.65,13.42-10.74,13.42-22.23S49.61,0,30.28,0H0V77.74H16.43V48.21h.12v-13h-.12V13.31h9.12C34.36,13.31,39,16.1,39,23.52c0,7.92-5.13,11.05-11.8,11.6V48.43L42.41,77.74H60.24Z"/><rect class="cls-1" x="1.5" y="83.43" width="91.19" height="10.62"/></g></g></svg>