<svg xmlns="http://www.w3.org/2000/svg" viewBox="0 0 335.21 102.97"><defs><style>.cls-1{fill:#00d477;}</style></defs><g id="Layer_2" data-name="Layer 2"><g id="Layer_1-2" data-name="Layer 1"><path d="M39.45,51.82l-.06.17h-6.8l-8-12.91h-5V52H13.37V16.24c3.29-.22,5.88-.32,10.26-.32,7.88,0,14.14,3,14.14,11.39,0,5.88-3,9.29-7,10.8ZM19.63,34.17h4.05c4.43,0,7.72-2.16,7.72-6.32s-2.48-6.48-7.18-6.48c-2.16,0-3.56,0-4.59.11Z"/><path d="M69.58,36.87c0,1,0,1.83-.11,2.75h-20c.64,5.13,4.42,7.72,9.61,7.72a19.73,19.73,0,0,0,8.58-2l.16.06v5.07A19.71,19.71,0,0,1,58,52.69c-7.45,0-15-4.16-15-14.69,0-8.75,6-14.58,13.83-14.58S69.47,28.28,69.58,36.87Zm-6.26-1.62c-.43-4.22-2.81-6.54-6.53-6.54s-6.38,2.22-7.19,6.54Z"/><path d="M74.12,38.11c0-9.18,6.27-14.69,15-14.69a19.68,19.68,0,0,1,7.29,1.19V30l-.22.11a15.8,15.8,0,0,0-6.37-1.24c-5.56,0-9.12,3.56-9.12,9.07s3.45,9.29,9.12,9.34a11.87,11.87,0,0,0,6.43-1.67l.27.11v5.45a15,15,0,0,1-7.29,1.57C80.49,52.69,74.12,47.29,74.12,38.11Z"/><path d="M119.16,24v5.72l-.16.11a7.74,7.74,0,0,0-2.86-.48c-3.19,0-6.43,1.51-7.08,7.23V52h-6.37V24.12h5.19l.59,3.84a8.38,8.38,0,0,1,7.67-4.43A8.82,8.82,0,0,1,119.16,24Z"/><path d="M149.24,24.12V52h-5.18l-.6-3.62c-1.67,2.54-4.75,4.32-9.28,4.32-6.49,0-10.16-3.89-10.16-10.86V24.12h6.37V40.54c0,4.8,2.38,6.69,5.94,6.69a6.53,6.53,0,0,0,6.54-4.69V24.12Z"/><path d="M156.48,15.81a4,4,0,1,1,4.05,4A4.08,4.08,0,0,1,156.48,15.81Zm.87,8.31h6.37V52h-6.37Z"/><path d="M180,29.25V41.67c0,3,1.24,5,4.43,5a9.34,9.34,0,0,0,4.26-1l.17.06v5.4a13.59,13.59,0,0,1-6.27,1.24c-5.67,0-9-3.24-9-9.34V29.25h-4.91V24.12h4.91V17.37l6.21-1.24.16.11v7.88h8.86v5.13Z"/><path d="M237.1,34.81V52h-6.37V36.65c0-5.24-2.7-7.07-5.88-7.07a6.5,6.5,0,0,0-6.21,4.48V52h-6.37V36.65c0-5.24-2.7-7.07-5.89-7.07a6.33,6.33,0,0,0-6.21,4.75V52H193.8V24.12H199l.6,3.73a10.11,10.11,0,0,1,8.85-4.43,9.54,9.54,0,0,1,8.75,5c1.4-2.37,4.37-5,9.56-5C232.24,23.42,237.1,27.25,237.1,34.81Z"/><path d="M269.73,36.87c0,1-.06,1.83-.11,2.75h-20c.65,5.13,4.43,7.72,9.61,7.72a19.8,19.8,0,0,0,8.59-2l.16.06v5.07a19.76,19.76,0,0,1-9.88,2.22c-7.46,0-15-4.16-15-14.69,0-8.75,6-14.58,13.82-14.58S269.62,28.28,269.73,36.87Zm-6.27-1.62c-.43-4.22-2.81-6.54-6.53-6.54s-6.37,2.22-7.18,6.54Z"/><path d="M301.91,35.35V52h-6.37V37.08c0-5.61-2.92-7.5-6.48-7.5a6.84,6.84,0,0,0-6.69,4.75V52H276V24.12h5.19l.65,3.78a10.79,10.79,0,0,1,9.23-4.48C297.27,23.42,301.91,27.47,301.91,35.35Z"/><path d="M317.47,29.25V41.67c0,3,1.24,5,4.43,5a9.34,9.34,0,0,0,4.26-1l.17.06v5.4a13.59,13.59,0,0,1-6.27,1.24c-5.67,0-9-3.24-9-9.34V29.25h-4.92V24.12h4.92V17.37l6.21-1.24.16.11v7.88h8.86v5.13Z"/><path d="M267.54,59.29V92.36h-5.89v-14H245v14h-5.85V59.29H245V73.08h16.69V59.29Z"/><path d="M298.57,66.58V92.36h-4.79L293.23,89c-1.55,2.34-4.4,4-8.6,4-6,0-9.39-3.59-9.39-10V66.58h5.9V81.77c0,4.45,2.19,6.2,5.49,6.2a6,6,0,0,0,6.05-4.35v-17Z"/><path d="M331.2,78.87c0,8.85-5.94,14.14-13.79,14.14A24.45,24.45,0,0,1,306,90.62V56.89h5.9V69.08a10,10,0,0,1,7.84-3.15C326.46,65.93,331.2,70.58,331.2,78.87Zm-6,.5c0-5.64-3.05-8.19-6.9-8.19A7.17,7.17,0,0,0,311.87,75V86.77a12.86,12.86,0,0,0,5.59,1.15C321.76,87.92,325.16,85.12,325.16,79.37Z"/><path d="M36.75,92.21l0,.15H30.4L23,80.42h-4.6V92.36H12.62V59.29c3-.2,5.44-.3,9.49-.3C29.4,59,35.2,61.74,35.2,69.53c0,5.45-2.8,8.59-6.49,10ZM18.41,75.88h3.75c4.1,0,7.14-2,7.14-5.85S27,64,22.66,64c-2,0-3.3,0-4.25.1Z"/><path d="M64.63,78.37c0,.95,0,1.7-.1,2.55H46.05c.59,4.75,4.09,7.15,8.89,7.15a18.34,18.34,0,0,0,7.94-1.85l.15,0V91a18.32,18.32,0,0,1-9.14,2C47,93,40,89.17,40,79.42c0-8.09,5.55-13.49,12.79-13.49S64.53,70.43,64.63,78.37Zm-5.79-1.5c-.4-3.89-2.6-6-6.05-6s-5.9,2-6.65,6Z"/><path d="M68.93,91.17V85.92l.15,0a16.63,16.63,0,0,0,8.69,2.5c3.75,0,5.55-.9,5.55-2.85s-1.45-2.75-6.2-4c-5.24-1.45-8-3.45-8-7.69,0-4.75,4.4-7.85,10.94-7.85a20.61,20.61,0,0,1,7.65,1.25v5l-.2,0a18,18,0,0,0-7.35-1.45c-3.1,0-5.29,1-5.29,2.7s1.44,2.3,5.79,3.49c5.65,1.45,8.3,3.6,8.3,8,0,5.25-4.2,8-10.9,8A20.07,20.07,0,0,1,68.93,91.17Z"/><path d="M93.11,79.42c0-8.39,6.15-13.49,13.64-13.49s13.69,4.5,13.69,13.54c0,8.45-6.09,13.54-13.69,13.54C99.41,93,93.11,88.47,93.11,79.42Zm21.29,0c0-5.09-3-8.39-7.65-8.39s-7.59,3.35-7.59,8.39,3,8.55,7.59,8.55S114.4,84.57,114.4,79.42Z"/><path d="M149.43,66.58V92.36h-4.8L144.08,89c-1.55,2.34-4.4,4-8.59,4-6,0-9.4-3.59-9.4-10V66.58H132V81.77c0,4.45,2.2,6.2,5.49,6.2a6,6,0,0,0,6.05-4.35v-17Z"/><path d="M172.16,66.43v5.3l-.15.1a7,7,0,0,0-2.65-.45c-2.94,0-5.94,1.4-6.54,6.69V92.36h-5.9V66.58h4.8l.55,3.55a7.76,7.76,0,0,1,7.09-4.1A8.06,8.06,0,0,1,172.16,66.43Z"/><path d="M174.26,79.52c0-8.49,5.8-13.59,13.84-13.59a18.3,18.3,0,0,1,6.75,1.1v5l-.2.1a14.61,14.61,0,0,0-5.9-1.15c-5.14,0-8.44,3.3-8.44,8.39s3.2,8.6,8.44,8.65a11,11,0,0,0,5.95-1.55l.25.1v5A13.81,13.81,0,0,1,188.2,93C180.16,93,174.26,88,174.26,79.52Z"/><path d="M223.28,78.37c0,.95-.05,1.7-.1,2.55H204.69c.6,4.75,4.1,7.15,8.9,7.15a18.34,18.34,0,0,0,7.94-1.85l.15,0V91a18.32,18.32,0,0,1-9.14,2c-6.9,0-13.89-3.84-13.89-13.59,0-8.09,5.54-13.49,12.79-13.49S223.18,70.43,223.28,78.37Zm-5.8-1.5c-.4-3.89-2.59-6-6-6s-5.9,2-6.65,6Z"/><path d="M9,.86H5v10.8h-1V.86H0V0H9Z"/><path d="M20.56,0V11.66h-1V6.16H12.12v5.5h-.95V0h.95V5.29H19.6V0Z"/><path d="M31.18,10.77v.89H24.26V0h6.67V.9H25.21V5.19H30.6v.9H25.21v4.68Z"/><rect class="cls-1" x="238.95" y="97.94" width="96.27" height="5.03"/><rect class="cls-1" x="1.09" y="17.24" width="6" height="36"/></g></g></svg>