<?xml version="1.0" standalone="no"?>
<!DOCTYPE svg PUBLIC "-//W3C//DTD SVG 20010904//EN"
 "http://www.w3.org/TR/2001/REC-SVG-20010904/DTD/svg10.dtd">
<svg version="1.0" xmlns="http://www.w3.org/2000/svg"
 width="752.000000pt" height="752.000000pt" viewBox="0 0 752.000000 752.000000"
 preserveAspectRatio="xMidYMid meet">
<metadata>
Created by potrace 1.14, written by Peter Selinger 2001-2017
</metadata>
<g transform="translate(0.000000,752.000000) scale(0.100000,-0.100000)"
fill="#000000" stroke="none">
<path d="M60 4413 l0 -3109 1078 0 c592 0 1079 3 1082 7 3 4 5 534 4 1179 0
752 3 1173 9 1177 6 3 8 2 4 -3 -3 -5 41 -99 98 -209 57 -110 136 -263 176
-340 39 -77 84 -162 99 -190 39 -71 90 -173 91 -182 0 -5 5 -13 10 -19 5 -6
29 -49 52 -95 104 -202 330 -636 397 -764 26 -49 92 -178 148 -285 55 -107
110 -213 122 -235 l21 -41 1132 1 c748 0 1132 3 1131 10 0 6 -8 26 -17 45 -16
33 -24 47 -47 88 -6 9 -22 42 -37 72 -15 30 -29 57 -33 60 -3 3 -24 43 -48 90
-43 85 -173 334 -242 465 -20 39 -70 133 -110 210 -40 77 -89 172 -110 210
-21 39 -69 131 -108 205 -38 74 -89 173 -114 220 -25 47 -67 128 -94 180 -27
52 -51 97 -54 100 -8 8 -64 124 -65 134 0 7 1112 12 1365 7 l35 -1 0 -1051 0
-1051 640 0 c352 1 649 1 660 1 20 1 20 8 20 3076 -1 1691 -4 3077 -7 3081 -5
4 -1189 8 -1303 4 -7 0 -10 -489 -10 -1456 0 -801 -2 -1459 -5 -1463 -5 -7
-1010 -10 -1010 -3 0 2 15 24 33 49 55 78 76 114 136 238 86 178 144 359 167
520 2 17 6 41 9 55 20 99 28 494 12 615 -17 134 -22 166 -43 250 -110 444
-367 783 -749 985 -44 23 -84 46 -90 50 -5 5 -14 9 -20 11 -5 1 -26 9 -45 17
-64 27 -195 73 -220 78 -14 2 -36 9 -50 14 -14 5 -68 18 -120 29 -114 25 -161
33 -275 47 -27 3 -68 8 -90 11 -22 3 -844 7 -1827 10 l-1788 4 0 -3108z m2385
2022 c326 -47 545 -179 649 -390 20 -40 36 -79 36 -87 0 -8 5 -19 12 -26 7 -7
9 -12 6 -12 -4 0 -2 -15 3 -32 27 -91 32 -429 7 -444 -5 -3 -6 -10 -2 -15 6
-10 -13 -104 -25 -124 -3 -5 -6 -16 -7 -23 -4 -25 -63 -142 -96 -189 -41 -61
-130 -150 -189 -190 -40 -28 -165 -96 -179 -98 -3 -1 -35 -11 -71 -23 -36 -12
-74 -24 -85 -26 -10 -3 -39 -9 -64 -15 -55 -12 -135 -24 -172 -25 -16 -1 -28
-5 -28 -10 0 -5 -3 -6 -7 -2 -5 4 -8 399 -9 878 l0 871 95 -7 c53 -3 110 -8
126 -11z"/>
<path d="M179 547 c0 -166 0 -309 -1 -317 0 -8 1 -63 2 -122 l2 -108 3644 0
3644 0 0 425 0 425 -3645 0 -3645 0 -1 -303z"/>
</g>
</svg>
