<svg xmlns="http://www.w3.org/2000/svg" width="92.048" height="71.667" viewBox="0 0 92.048 71.667">
  <path id="iconmonstr-basket-3" d="M17.481,19.917,35.511,3.068A4.058,4.058,0,0,1,38.276,2a3.784,3.784,0,0,1,3.912,3.687,3.446,3.446,0,0,1-1.147,2.548l-12.5,11.682Zm46.028,0H74.566L56.533,3.068A4.042,4.042,0,0,0,53.771,2a3.784,3.784,0,0,0-3.912,3.687,3.446,3.446,0,0,0,1.147,2.548Zm28.539,7.167V34.25H89.585a5.414,5.414,0,0,0-4.821,2.817l-15.729,36.6H23.012L7.283,37.059A5.4,5.4,0,0,0,2.466,34.25H0V27.083ZM34.518,41.417a3.844,3.844,0,0,0-7.671,0V59.334a3.844,3.844,0,0,0,7.671,0Zm15.341,0a3.844,3.844,0,0,0-7.671,0V59.334a3.844,3.844,0,0,0,7.671,0Zm15.341,0a3.844,3.844,0,0,0-7.671,0V59.334a3.844,3.844,0,0,0,7.671,0Z" transform="translate(0 -2)" fill="#00d477"/>
</svg>
