<svg xmlns="http://www.w3.org/2000/svg" width="90.212" height="90.212" viewBox="0 0 90.212 90.212">
  <path id="iconmonstr-checkbox-9" d="M37.742,63.9,20.828,47.666l5.244-5.394,11.577,11.04,26.391-27,5.345,5.3L37.742,63.9ZM18.794,7.518A11.29,11.29,0,0,0,7.518,18.794V71.418A11.29,11.29,0,0,0,18.794,82.694H71.418A11.29,11.29,0,0,0,82.694,71.418V18.794A11.29,11.29,0,0,0,71.418,7.518H18.794ZM90.212,18.794V71.418A18.794,18.794,0,0,1,71.418,90.212H18.794A18.794,18.794,0,0,1,0,71.418V18.794A18.794,18.794,0,0,1,18.794,0H71.418A18.794,18.794,0,0,1,90.212,18.794Z" fill="#00d477"/>
</svg>
