<svg xmlns="http://www.w3.org/2000/svg" width="68.729" height="103.093" viewBox="0 0 68.729 103.093">
  <path id="iconmonstr-award-5" d="M35.714,68.475,19.571,103.093,15.418,91.676,4,95.834,19.107,63.441c2.912.928,4.884.7,7.942.7C30.246,66.34,31.655,67.762,35.714,68.475Zm13.969-4.334c-3.17,2.174-4.506,3.57-8.565,4.313l16.147,34.639,4.154-11.418,11.31,4.158L57.716,63.407c-2.947.954-4.923.735-8.033.735ZM38.364,12.887A17.182,17.182,0,1,0,55.547,30.069,17.205,17.205,0,0,0,38.364,12.887ZM68.115,35.559a5.776,5.776,0,0,1,.318,1.912,6.059,6.059,0,0,1-2.642,4.966c-5.4,3.737-4.682,2.8-6.71,8.879a6.361,6.361,0,0,1-6.074,4.253h-.017c-6.654-.021-5.494-.378-10.859,3.389a6.591,6.591,0,0,1-7.53,0c-5.365-3.771-4.21-3.411-10.859-3.389h-.017a6.347,6.347,0,0,1-6.07-4.253c-2.032-6.087-1.336-5.146-6.71-8.879a6.059,6.059,0,0,1-2.65-4.97,5.883,5.883,0,0,1,.318-1.907c2.075-6.061,2.079-4.893,0-10.975A5.927,5.927,0,0,1,8.3,22.672a6.06,6.06,0,0,1,2.646-4.97c5.374-3.729,4.678-2.784,6.71-8.879a6.351,6.351,0,0,1,6.07-4.253h.017c6.637.021,5.46.408,10.859-3.393a6.611,6.611,0,0,1,7.53,0c5.365,3.771,4.21,3.415,10.859,3.393H53a6.357,6.357,0,0,1,6.074,4.253c2.032,6.083,1.319,5.142,6.71,8.879a6.058,6.058,0,0,1,2.646,4.966,5.8,5.8,0,0,1-.318,1.912C66.041,30.64,66.032,29.472,68.115,35.559Zm-8.273-5.49A21.478,21.478,0,1,0,38.364,51.547,21.477,21.477,0,0,0,59.842,30.069Z" transform="translate(-4)" fill="#00d477"/>
</svg>
