<svg xmlns="http://www.w3.org/2000/svg" width="97" height="89" viewBox="0 0 97 89">
  <g id="Group_126" data-name="Group 126" transform="translate(5809 7774)">
    <circle id="Ellipse_21" data-name="Ellipse 21" cx="23.5" cy="23.5" r="23.5" transform="translate(-5809 -7774)" fill="#00d477"/>
    <circle id="Ellipse_22" data-name="Ellipse 22" cx="22" cy="22" r="22" transform="translate(-5756 -7754)" fill="#00d477"/>
    <circle id="Ellipse_23" data-name="Ellipse 23" cx="17.5" cy="17.5" r="17.5" transform="translate(-5791 -7720)" fill="#00d477"/>
    <path id="Path_277" data-name="Path 277" d="M3.252,0H-1V-20.561l-6.275,2.139v-3.586l9.984-3.674h.545Z" transform="translate(-5785 -7737)" fill="#fff"/>
    <path id="Path_279" data-name="Path 279" d="M-5.578-9.871-4.5-19.906H6.193v2.871h-7.93l-.547,4.758A6.146,6.146,0,0,1,.834-13.07a5.545,5.545,0,0,1,4.423,1.818A7.206,7.206,0,0,1,6.836-6.357a6.632,6.632,0,0,1-1.75,4.833,6.387,6.387,0,0,1-4.8,1.8A6.689,6.689,0,0,1-4.245-1.278,5.61,5.61,0,0,1-6.193-5.373H-2.98A3.509,3.509,0,0,0-1.941-3.151a3.161,3.161,0,0,0,2.215.772A2.856,2.856,0,0,0,2.659-3.473a4.721,4.721,0,0,0,.854-2.98A4.171,4.171,0,0,0,2.57-9.331a3.3,3.3,0,0,0-2.6-1.06,4.322,4.322,0,0,0-1.531.239,4.337,4.337,0,0,0-1.367.937Z" transform="translate(-5734 -7722)" fill="#fff"/>
    <path id="Path_278" data-name="Path 278" d="M-4.071,0H-6.552V-11.994l-3.661,1.248v-2.092l5.824-2.143h.318ZM11.156,0H1.118V-1.712L6.091-7.137a12.384,12.384,0,0,0,1.533-2,3.248,3.248,0,0,0,.456-1.615,2.454,2.454,0,0,0-.6-1.723,2.081,2.081,0,0,0-1.615-.656,2.4,2.4,0,0,0-1.876.738,2.9,2.9,0,0,0-.667,2.02H.831a4.883,4.883,0,0,1,.62-2.456,4.272,4.272,0,0,1,1.774-1.7,5.646,5.646,0,0,1,2.661-.6,5.05,5.05,0,0,1,3.43,1.092,3.791,3.791,0,0,1,1.256,3.02A5.125,5.125,0,0,1,9.941-8.68,13.323,13.323,0,0,1,7.875-5.9L4.225-1.989h6.932Z" transform="translate(-5775 -7695)" fill="#fff"/>
  </g>
</svg>
