<svg xmlns="http://www.w3.org/2000/svg" width="127.656" height="108.069" viewBox="0 0 127.656 108.069">
  <g id="Group_125" data-name="Group 125" transform="translate(5735.83 7572.347)">
    <path id="iconmonstr-credit-card-16" d="M65.858,61.871H5.987A5.989,5.989,0,0,1,0,55.884V19.961a5.989,5.989,0,0,1,5.987-5.987h4.868l.233.847a14.2,14.2,0,0,0,2.844,5.14H7.484a1.5,1.5,0,0,0-1.5,1.5V37.923H65.858V21.458a1.5,1.5,0,0,0-1.5-1.5H57.914a14.154,14.154,0,0,0,3.08-5.987h4.865a5.989,5.989,0,0,1,5.987,5.987V55.884A5.989,5.989,0,0,1,65.858,61.871ZM5.987,46.9v7.484a1.5,1.5,0,0,0,1.5,1.5H64.362a1.5,1.5,0,0,0,1.5-1.5V46.9ZM32.663,31.936H23.949a103.608,103.608,0,0,1,5.987-11.974c-1.937,0-4.706.021-5.987,0a9.036,9.036,0,0,1-8.981-8.981A8.9,8.9,0,0,1,23.949,2c4.487.018,8.424,2.61,11.974,6.924C39.473,4.61,43.41,2.018,47.9,2a8.9,8.9,0,0,1,8.981,8.981A9.036,9.036,0,0,1,47.9,19.961c-1.281.021-4.05,0-5.987,0A91.182,91.182,0,0,1,47.9,31.936H39.183a42.426,42.426,0,0,0-3.26-10.13A46.669,46.669,0,0,0,32.663,31.936ZM25.02,7.993c-3.386,0-4.511,5.742.359,5.981.709.036,6.691,0,6.691,0C28.966,9.664,27.52,7.993,25.02,7.993Zm21.766,0c3.386,0,4.511,5.742-.359,5.981-.709.036-6.652,0-6.652,0C42.88,9.664,44.287,7.993,46.786,7.993Z" transform="translate(-5707.924 -7552.11)" fill="#00d477" fill-rule="evenodd"/>
    <path id="iconmonstr-connection-8" d="M34.585,26.612V14.653L14.653,30.6,34.585,46.545V34.585H70.464V26.612Z" transform="translate(-5750.482 -7587)" fill="#00d477" fill-rule="evenodd"/>
    <path id="iconmonstr-connection-8-2" data-name="iconmonstr-connection-8" d="M50.531,26.612V14.653L70.464,30.6,50.531,46.545V34.585H14.653V26.612Z" transform="translate(-5678.637 -7510.822)" fill="#00d477" fill-rule="evenodd"/>
  </g>
</svg>
