<svg xmlns="http://www.w3.org/2000/svg" width="85.643" height="93.428" viewBox="0 0 85.643 93.428">
  <path id="iconmonstr-flower-3" d="M1,58.393c15.863-4.364,37.021,1.966,42.821,23.357C51.549,58.63,74.781,54.3,86.643,58.393c-9.6,5.933-13.613,35.036-42.821,35.036S10.783,64.345,1,58.393ZM32.933,11.363a11.42,11.42,0,0,1,22.839,0A11.419,11.419,0,0,1,67.19,31.143a11.419,11.419,0,0,1-11.418,19.78,11.42,11.42,0,0,1-22.839,0,11.419,11.419,0,0,1-11.418-19.78,11.419,11.419,0,0,1,11.418-19.78ZM43.821,21.411a9.732,9.732,0,1,1-9.732,9.732A9.736,9.736,0,0,1,43.821,21.411Z" transform="translate(-1)" fill="#00d477" fill-rule="evenodd"/>
</svg>
