<svg xmlns="http://www.w3.org/2000/svg" viewBox="0 0 466.81 102.97"><defs><style>.cls-1{fill:#00d477;}</style></defs><g id="Layer_2" data-name="Layer 2"><g id="Layer_1-2" data-name="Layer 1"><path d="M171.05,51.82,171,52h-6.8l-8-12.91h-5V52H145V16.24c3.29-.22,5.88-.32,10.26-.32,7.88,0,14.14,3,14.14,11.39,0,5.88-3,9.29-7,10.8ZM151.23,34.17h4.05c4.43,0,7.72-2.16,7.72-6.32s-2.48-6.48-7.18-6.48c-2.16,0-3.56,0-4.59.11Z"/><path d="M201.18,36.87c0,1-.05,1.83-.1,2.75h-20c.65,5.13,4.42,7.72,9.61,7.72a19.73,19.73,0,0,0,8.58-2l.17.06v5.07a19.77,19.77,0,0,1-9.89,2.22c-7.45,0-15-4.16-15-14.69,0-8.75,6-14.58,13.83-14.58S201.08,28.28,201.18,36.87Zm-6.26-1.62c-.43-4.22-2.81-6.54-6.53-6.54s-6.38,2.22-7.18,6.54Z"/><path d="M205.72,38.11c0-9.18,6.27-14.69,15-14.69A19.64,19.64,0,0,1,228,24.61V30l-.21.11a15.89,15.89,0,0,0-6.38-1.24c-5.56,0-9.12,3.56-9.12,9.07s3.45,9.29,9.12,9.34a11.87,11.87,0,0,0,6.43-1.67l.27.11v5.45a15,15,0,0,1-7.29,1.57C212.1,52.69,205.72,47.29,205.72,38.11Z"/><path d="M250.76,24v5.72l-.16.11a7.74,7.74,0,0,0-2.86-.48c-3.19,0-6.43,1.51-7.07,7.23V52h-6.38V24.12h5.19l.59,3.84a8.38,8.38,0,0,1,7.67-4.43A8.78,8.78,0,0,1,250.76,24Z"/><path d="M280.84,24.12V52h-5.18l-.6-3.62c-1.67,2.54-4.75,4.32-9.28,4.32-6.48,0-10.16-3.89-10.16-10.86V24.12H262V40.54c0,4.8,2.37,6.69,5.94,6.69a6.52,6.52,0,0,0,6.53-4.69V24.12Z"/><path d="M288.08,15.81a4,4,0,1,1,4.05,4A4.08,4.08,0,0,1,288.08,15.81Zm.87,8.31h6.37V52H289Z"/><path d="M311.57,29.25V41.67c0,3,1.24,5,4.43,5a9.38,9.38,0,0,0,4.27-1l.16.06v5.4a13.59,13.59,0,0,1-6.27,1.24c-5.67,0-9-3.24-9-9.34V29.25h-4.91V24.12h4.91V17.37l6.21-1.24.16.11v7.88h8.86v5.13Z"/><path d="M368.71,34.81V52h-6.38V36.65c0-5.24-2.7-7.07-5.88-7.07a6.51,6.51,0,0,0-6.21,4.48V52h-6.37V36.65c0-5.24-2.7-7.07-5.89-7.07a6.33,6.33,0,0,0-6.21,4.75V52H325.4V24.12h5.18l.6,3.73A10.11,10.11,0,0,1,340,23.42a9.54,9.54,0,0,1,8.75,5c1.4-2.37,4.37-5,9.56-5C363.85,23.42,368.71,27.25,368.71,34.81Z"/><path d="M401.33,36.87c0,1-.06,1.83-.11,2.75h-20c.65,5.13,4.43,7.72,9.61,7.72a19.8,19.8,0,0,0,8.59-2l.16.06v5.07a19.76,19.76,0,0,1-9.88,2.22c-7.45,0-15-4.16-15-14.69,0-8.75,6-14.58,13.82-14.58S401.22,28.28,401.33,36.87Zm-6.27-1.62c-.43-4.22-2.8-6.54-6.53-6.54s-6.37,2.22-7.18,6.54Z"/><path d="M433.51,35.35V52h-6.37V37.08c0-5.61-2.91-7.5-6.48-7.5A6.84,6.84,0,0,0,414,34.33V52H407.6V24.12h5.18l.65,3.78a10.79,10.79,0,0,1,9.23-4.48C428.87,23.42,433.51,27.47,433.51,35.35Z"/><path d="M449.07,29.25V41.67c0,3,1.24,5,4.43,5a9.38,9.38,0,0,0,4.27-1l.16.06v5.4a13.59,13.59,0,0,1-6.27,1.24c-5.67,0-9-3.24-9-9.34V29.25h-4.91V24.12h4.91V17.37l6.21-1.24.16.11v7.88h8.86v5.13Z"/><path d="M399.15,59.29V92.36h-5.9v-14H376.56v14h-5.85V59.29h5.85V73.08h16.69V59.29Z"/><path d="M430.17,66.58V92.36h-4.79L424.83,89c-1.55,2.34-4.4,4-8.6,4-6,0-9.39-3.59-9.39-10V66.58h5.9V81.77c0,4.45,2.2,6.2,5.49,6.2a6,6,0,0,0,6-4.35v-17Z"/><path d="M462.8,78.87C462.8,87.72,456.86,93,449,93a24.45,24.45,0,0,1-11.44-2.39V56.89h5.9V69.08a10.06,10.06,0,0,1,7.84-3.15C458.06,65.93,462.8,70.58,462.8,78.87Zm-6,.5c0-5.64-3.05-8.19-6.9-8.19A7.19,7.19,0,0,0,443.47,75V86.77a12.92,12.92,0,0,0,5.59,1.15C453.36,87.92,456.76,85.12,456.76,79.37Z"/><path d="M168.35,92.21l0,.15H162l-7.4-11.94H150V92.36h-5.79V59.29c3.05-.2,5.44-.3,9.49-.3,7.3,0,13.09,2.75,13.09,10.54,0,5.45-2.8,8.59-6.49,10ZM150,75.88h3.75c4.1,0,7.15-2,7.15-5.85s-2.3-6-6.65-6c-2,0-3.3,0-4.25.1Z"/><path d="M196.23,78.37c0,.95,0,1.7-.1,2.55H177.65c.6,4.75,4.09,7.15,8.89,7.15a18.31,18.31,0,0,0,7.94-1.85l.15,0V91a18.29,18.29,0,0,1-9.14,2c-6.89,0-13.89-3.84-13.89-13.59,0-8.09,5.55-13.49,12.79-13.49S196.13,70.43,196.23,78.37Zm-5.79-1.5c-.4-3.89-2.6-6-6.05-6s-5.89,2-6.64,6Z"/><path d="M200.53,91.17V85.92l.15,0a16.64,16.64,0,0,0,8.7,2.5c3.74,0,5.54-.9,5.54-2.85s-1.45-2.75-6.19-4c-5.25-1.45-8-3.45-8-7.69,0-4.75,4.4-7.85,10.94-7.85a20.61,20.61,0,0,1,7.65,1.25v5l-.2,0a18,18,0,0,0-7.35-1.45c-3.09,0-5.29,1-5.29,2.7s1.45,2.3,5.79,3.49c5.65,1.45,8.3,3.6,8.3,8,0,5.25-4.2,8-10.89,8A20.09,20.09,0,0,1,200.53,91.17Z"/><path d="M224.72,79.42c0-8.39,6.14-13.49,13.64-13.49s13.69,4.5,13.69,13.54c0,8.45-6.1,13.54-13.69,13.54C231,93,224.72,88.47,224.72,79.42Zm21.28,0c0-5.09-3-8.39-7.64-8.39s-7.6,3.35-7.6,8.39,3,8.55,7.6,8.55S246,84.57,246,79.42Z"/><path d="M281,66.58V92.36h-4.8L275.68,89c-1.55,2.34-4.4,4-8.59,4-6,0-9.4-3.59-9.4-10V66.58h5.9V81.77c0,4.45,2.2,6.2,5.5,6.2a6,6,0,0,0,6-4.35v-17Z"/><path d="M303.76,66.43v5.3l-.15.1a7,7,0,0,0-2.64-.45c-3,0-6,1.4-6.55,6.69V92.36h-5.9V66.58h4.8l.55,3.55A7.77,7.77,0,0,1,301,66,8,8,0,0,1,303.76,66.43Z"/><path d="M305.86,79.52c0-8.49,5.8-13.59,13.84-13.59a18.3,18.3,0,0,1,6.75,1.1v5l-.2.1a14.61,14.61,0,0,0-5.9-1.15c-5.14,0-8.44,3.3-8.44,8.39s3.2,8.6,8.44,8.65a11,11,0,0,0,5.95-1.55l.25.1v5A13.81,13.81,0,0,1,319.8,93C311.76,93,305.86,88,305.86,79.52Z"/><path d="M354.88,78.37c0,.95-.05,1.7-.1,2.55H336.29c.6,4.75,4.1,7.15,8.9,7.15a18.34,18.34,0,0,0,7.94-1.85l.15,0V91a18.32,18.32,0,0,1-9.14,2c-6.9,0-13.89-3.84-13.89-13.59,0-8.09,5.54-13.49,12.79-13.49S354.78,70.43,354.88,78.37Zm-5.79-1.5c-.4-3.89-2.6-6-6-6s-5.9,2-6.65,6Z"/><path d="M140.64.86h-4v10.8h-1V.86H131.6V0h9Z"/><path d="M152.16,0V11.66h-.95V6.16h-7.49v5.5h-.95V0h.95V5.29h7.49V0Z"/><path d="M162.78,10.77v.89h-6.92V0h6.67V.9h-5.71V5.19h5.38v.9h-5.38v4.68Z"/><rect class="cls-1" x="370.55" y="97.94" width="96.27" height="5.03"/><path d="M45.25,41.44H74.74V4.83h16.5V81.9H74.74V55.6H45.25"/><path class="cls-1" d="M53.26,48.22C61.2,44.58,66.68,37.48,66.68,26S60.23,4.1,40.9,4.1H10.62V81.83H27.06V52.3h.11v-13h-.11V17.4h9.12C45,17.4,49.6,20.2,49.6,27.61c0,7.93-5.14,11.06-11.8,11.61V52.53L53,81.83H70.87Z"/><path d="M42.63,48.22C50.57,44.58,56.05,37.48,56.05,26S49.61,4.1,30.28,4.1H0V81.83H16.43V52.3h.12v-13h-.12V17.4h9.12C34.36,17.4,39,20.2,39,27.61c0,7.93-5.13,11.06-11.8,11.61V52.53l15.24,29.3H60.24Z"/><rect class="cls-1" x="132.69" y="17.24" width="6" height="36"/><rect class="cls-1" x="1.5" y="87.52" width="91.19" height="10.62"/></g></g></svg>