<svg xmlns="http://www.w3.org/2000/svg" viewBox="0 0 298.32 261.74"><defs><style>.cls-1{fill:none;stroke:#00d477;stroke-miterlimit:10;stroke-width:8.5px;}.cls-2{fill:#00d477;}</style></defs><g id="Layer_2" data-name="Layer 2"><g id="Layer_1-2" data-name="Layer 1"><rect class="cls-1" x="34.12" y="153.38" width="48.79" height="99.7" transform="translate(-126.57 100.9) rotate(-45)"/><rect class="cls-2" x="28.84" y="176.03" width="14.85" height="9.9" transform="translate(-117.35 78.65) rotate(-45)"/><path class="cls-1" d="M52.51,161.73l31-29.23a12.37,12.37,0,0,1,8.45-3.33h53.36a12.37,12.37,0,0,1,8,3L170.78,147a12.41,12.41,0,0,0,8,2.95h48.81A12.39,12.39,0,0,1,240,162.34h0a12.39,12.39,0,0,1-12.39,12.39H153.89"/><path class="cls-1" d="M105,214.73h96a49.73,49.73,0,0,0,37.41-17l53.74-61.32a7.63,7.63,0,0,0-5.68-12.72h-3.14a36,36,0,0,0-25.46,10.54l-20.49,20.5"/><path class="cls-1" d="M217.73,74.57,201.4,79.79a22.83,22.83,0,0,0-15.89,21.75v5.53l6.44-.48a22.86,22.86,0,0,0,19.83-15.17Z"/><path class="cls-1" d="M179.13,130.47h0A120.86,120.86,0,0,0,115.22,71.6"/><path class="cls-1" d="M147.51,106.73s-51,3.67-55-32.16-3.28-40.94-3.28-40.94,27.26,10.1,45.26,15.1,32.39,19.91,33,52"/><circle class="cls-1" cx="152.24" cy="21.35" r="17.09"/><circle class="cls-1" cx="208.38" cy="41.49" r="13.5"/><path class="cls-1" d="M217.73,150l5.88-9.2a20.29,20.29,0,0,1,20.91-9l13.31,2.53"/><path class="cls-1" d="M190.51,148.73c7-18,35-11,35-11"/><line class="cls-1" x1="134.83" y1="239.08" x2="208.38" y2="239.08"/></g></g></svg>