<svg xmlns="http://www.w3.org/2000/svg" viewBox="0 0 244.64 253.3"><defs><style>.cls-1,.cls-2{fill:none;stroke:#00d477;stroke-miterlimit:10;stroke-width:8px;}.cls-2{stroke-linecap:round;}</style></defs><g id="Layer_2" data-name="Layer 2"><g id="Layer_1-2" data-name="Layer 1"><line class="cls-1" x1="188.4" y1="51.21" x2="237.04" y2="51.21"/><line class="cls-1" x1="212.72" y1="26.9" x2="212.72" y2="75.53"/><path class="cls-1" d="M131.4,86.67V104.9a8.77,8.77,0,0,1-8.59,8.92l-62.4,12a8.77,8.77,0,0,1-8.59-8.92V86.67c0-11.36,9.86-20.57,22-20.57h.07a26.59,26.59,0,0,0,35.43,0h.06C121.54,66.1,131.4,75.31,131.4,86.67Z"/><path class="cls-1" d="M113.91,34.4A23.39,23.39,0,1,1,90.52,11,23.32,23.32,0,0,1,113.91,34.4Z"/><path class="cls-2" d="M125.31,59.45l.47-.32a14.59,14.59,0,0,1,14.43-1.53,20.5,20.5,0,0,1,12.37,18.5V94.33a8.76,8.76,0,0,1-8.58,8.92"/><path class="cls-2" d="M106.27,4.39A22.9,22.9,0,0,1,110.51,4a23.4,23.4,0,0,1,12.43,43.22"/><line class="cls-1" x1="35.04" y1="87.94" x2="35.04" y2="109.11"/><rect class="cls-1" x="12.75" y="140.74" width="190.11" height="79.61" transform="matrix(0.95, -0.31, 0.31, 0.95, -51.35, 43.11)"/><line class="cls-1" x1="28.84" y1="184.31" x2="104.62" y2="159.18"/><line class="cls-1" x1="34.67" y1="201.9" x2="110.45" y2="176.77"/><circle class="cls-1" cx="166.96" cy="159.31" r="13.29"/><polyline class="cls-1" points="62.4 248.24 239.87 201.9 222.59 126.53 207.18 128.86"/></g></g></svg>