<svg xmlns="http://www.w3.org/2000/svg" viewBox="0 0 218.1 234.13"><defs><style>.cls-1{fill:#00d477;}.cls-2,.cls-3{fill:none;stroke:#00d477;stroke-miterlimit:10;stroke-width:8px;}.cls-3{stroke-linecap:round;}</style></defs><g id="Layer_2" data-name="Layer 2"><g id="Layer_1-2" data-name="Layer 1"><rect class="cls-1" x="179.2" y="164.56" width="17.21" height="78.56" rx="8.6" transform="translate(-89.13 192.5) rotate(-45)"/><circle class="cls-2" cx="102.63" cy="102.26" r="82.53"/><path class="cls-3" d="M78.59,205.75a103,103,0,0,1-47.74-22.52"/><path class="cls-3" d="M205.64,91.82a101.93,101.93,0,0,0-41.07-72.6"/><path class="cls-3" d="M10.14,58.18q-1.61,3.41-2.95,6.91Q5.36,69.89,4,74.85"/><path class="cls-3" d="M75.84,4a103.08,103.08,0,0,0-20.23,7.39c-14.25,7-22.55,14.83-31.92,27"/><path class="cls-2" d="M142.52,118.14v21.23a8.76,8.76,0,0,1-8.58,8.92H71.53A8.76,8.76,0,0,1,63,139.37V118.14c0-11.36,9.85-20.57,22-20.57H85a26.59,26.59,0,0,0,35.43,0h.06C132.67,97.57,142.52,106.78,142.52,118.14Z"/><path class="cls-2" d="M125,65.87a23.39,23.39,0,1,1-23.39-23.4A23.35,23.35,0,0,1,125,65.87Z"/><line class="cls-2" x1="46.17" y1="119.41" x2="46.17" y2="140.58"/><line class="cls-2" x1="159.38" y1="91.9" x2="159.38" y2="123.95"/></g></g></svg>